<svg xmlns="http://www.w3.org/2000/svg" width="180" height="180" viewBox="0 0 180 180" style="background:transparent"><g id="color-0f0f0f"><path fill="#0F0F0F" fill-rule="evenodd" d="M88.783,51.5L86.828,53.455C86.495,53.959 85.762,53.952 85.176,54.061L83.874,55.499L81.874,57.499C81.495,57.959 80.762,57.952 80.176,58.061C79.713,58.645 78.909,58.925 78.176,59.061L76.874,60.499L75.874,61.499C75.495,61.959 74.762,61.952 74.176,62.061L72.874,63.499C72.495,63.959 71.762,63.952 71.176,64.061L69.874,65.499C69.495,65.959 68.762,65.952 68.176,66.061L66.874,67.499L65.874,68.499C65.495,68.959 64.762,68.952 64.176,69.061L62.874,70.499L61.874,71.499C61.495,71.959 60.762,71.952 60.176,72.061L58.874,73.499C58.495,73.959 57.762,73.952 57.176,74.061L55.874,75.499C55.495,75.959 54.762,75.952 54.176,76.061C53.694,76.669 52.846,77.224 52.884,78V84.501V90.834V97.168V103.501V110.001V116.334V122.668V128.834V129.833C52.863,130.261 53.17,130.686 53.499,130.96L54.176,131.773H63.167H72H80.834H89.5H98.5H107.167H116H124.657C125.139,131.164 125.987,130.609 125.949,129.833L125.833,128.667V122.167V115.833V109.5V103.167V96.833V90.5V84.167V77.999C125.97,77.573 125.663,77.147 125.334,76.874L124.334,75.874L123.657,75.061L123,75C122.565,74.973 122.151,74.671 121.874,74.334L120.874,73.334C120.501,72.881 120.022,72.521 119.657,72.061L119,72C118.565,71.973 118.151,71.671 117.874,71.334C117.501,70.881 117.022,70.521 116.657,70.061L116,70C115.565,69.973 115.151,69.671 114.874,69.334C114.501,68.881 114.022,68.521 113.657,68.061L113,68C112.565,67.973 112.151,67.671 111.874,67.334L110.874,66.334C110.501,65.881 110.022,65.521 109.657,65.061L109,65C108.565,64.973 108.151,64.671 107.874,64.334L106.874,63.334C106.501,62.881 106.022,62.521 105.657,62.061L105,62C104.565,61.973 104.151,61.671 103.874,61.334C103.501,60.881 103.022,60.521 102.657,60.061L102,60C101.565,59.973 101.151,59.671 100.874,59.334L99.874,58.334C99.501,57.881 99.022,57.521 98.657,57.061L98,57C97.565,56.973 97.151,56.671 96.874,56.334C96.501,55.881 96.022,55.521 95.657,55.061L95,55C94.565,54.973 94.151,54.671 93.874,54.334L92.874,53.334C92.501,52.881 92.022,52.521 91.657,52.061L91,52C90.403,51.958 90.033,51.284 89.5,51.011C89.214,51.054 88.981,51.289 88.783,51.5Z"/></g><g id="color-fdfdfd"><path fill="#FDFDFD" fill-rule="evenodd" d="M88.783,34.5L86.828,36.455C86.495,36.959 85.762,36.952 85.176,37.061L83.874,38.499C83.495,38.959 82.762,38.952 82.176,39.061L80.874,40.499L79.874,41.499C79.495,41.959 78.762,41.952 78.176,42.061L76.874,43.499C76.495,43.959 75.762,43.952 75.176,44.061L73.874,45.499C73.495,45.959 72.762,45.952 72.176,46.061L70.874,47.499L69.874,48.499C69.495,48.959 68.762,48.952 68.176,49.061L66.874,50.499L65.874,51.499C65.495,51.959 64.762,51.952 64.176,52.061L62.874,53.499C62.495,53.959 61.762,53.952 61.176,54.061L59.874,55.499C59.495,55.959 58.762,55.952 58.176,56.061L56.874,57.499L55.874,58.499C55.495,58.959 54.762,58.952 54.176,59.061L52.874,60.499C52.495,60.959 51.762,60.952 51.176,61.061L49.874,62.499C49.495,62.959 48.762,62.952 48.176,63.061L46.874,64.499L45.874,65.499C45.495,65.959 44.762,65.952 44.176,66.061L42.874,67.499C42.495,67.959 41.762,67.952 41.176,68.061C40.694,68.669 39.846,69.224 39.884,70V74.668V79.168V88.334V97.501V106.501V111.335V115.835V124.834V133.834V142.834V143.833C39.863,144.261 40.17,144.686 40.499,144.96L41.176,145.773H47.5H53.5H59.667H65.667H71.834H77.834H84H90H96.167H102.167H108.334H114.334H120.5H126.5H132.667H138.657C139.139,145.164 139.987,144.609 139.949,143.833L139.833,142.667V138V133.333V124.333V119.667V115.167V106.167V97V88V78.833C139.833,75.889 139.806,72.941 139.949,70C139.97,69.573 139.663,69.147 139.334,68.874L136.334,65.874L135.657,65.061L135,65C134.565,64.973 134.151,64.671 133.874,64.334C133.501,63.881 133.022,63.521 132.657,63.061L132,63C131.565,62.973 131.151,62.671 130.874,62.334C130.501,61.881 130.022,61.521 129.657,61.061L129,61C128.565,60.973 128.151,60.671 127.874,60.334C127.501,59.881 127.022,59.521 126.657,59.061L126,59C125.565,58.973 125.151,58.671 124.874,58.334C124.501,57.881 124.022,57.521 123.657,57.061L123,57C122.565,56.973 122.151,56.671 121.874,56.334L120.874,55.334C120.501,54.881 120.022,54.521 119.657,54.061L119,54C118.455,53.967 117.996,53.489 117.657,53.061L117,53C116.565,52.973 116.151,52.671 115.874,52.334L114.874,51.334C114.501,50.881 114.022,50.521 113.657,50.061L113,50C112.565,49.973 112.151,49.671 111.874,49.334C111.501,48.881 111.022,48.521 110.657,48.061L110,48C109.565,47.973 109.151,47.671 108.874,47.334C108.501,46.881 108.022,46.521 107.657,46.061L107,46C106.565,45.973 106.151,45.671 105.874,45.334C105.501,44.881 105.022,44.521 104.657,44.061L104,44C103.565,43.973 103.151,43.671 102.874,43.334L101.874,42.334C101.501,41.881 101.022,41.521 100.657,41.061L100,41C99.565,40.973 99.151,40.671 98.874,40.334C98.501,39.881 98.022,39.521 97.657,39.061L97,39C96.565,38.973 96.151,38.671 95.874,38.334C95.501,37.881 95.022,37.521 94.657,37.061L94,37C93.565,36.973 93.151,36.671 92.874,36.334C92.501,35.881 92.022,35.521 91.657,35.061L91,35C90.587,34.971 90.247,34.623 89.95,34.334C89.784,34.172 89.563,34.045 89.333,34.011L88.783,34.5ZM89.5,49.945L90.052,50.497C90.292,50.732 90.667,50.788 91,50.834C91.386,50.887 91.712,51.199 91.96,51.499C92.333,51.953 92.812,52.313 93.176,52.773L93.833,52.833C94.269,52.86 94.683,53.162 94.96,53.499L95.96,54.499C96.333,54.953 96.812,55.313 97.176,55.773L97.833,55.833C98.269,55.86 98.683,56.162 98.96,56.499C99.333,56.953 99.812,57.313 100.176,57.773L100.833,57.833C101.269,57.86 101.683,58.162 101.96,58.499L102.96,59.499C103.333,59.953 103.812,60.313 104.176,60.773L104.833,60.833C105.269,60.86 105.683,61.162 105.96,61.499C106.333,61.953 106.812,62.313 107.176,62.773L107.833,62.833C108.269,62.86 108.683,63.162 108.96,63.499L109.96,64.499C110.333,64.953 110.812,65.313 111.176,65.773L111.833,65.833C112.269,65.86 112.683,66.162 112.96,66.499C113.333,66.953 113.812,67.313 114.176,67.773L114.833,67.833C115.269,67.86 115.683,68.162 115.96,68.499L116.96,69.499C117.333,69.953 117.812,70.313 118.176,70.773L118.833,70.833C119.269,70.86 119.683,71.162 119.96,71.499C120.333,71.953 120.812,72.313 121.176,72.773L121.833,72.833C122.269,72.86 122.683,73.162 122.96,73.499L125.96,76.499C126.148,76.728 126.819,77.299 126.657,77.051C126.754,77.201 126.967,77.678 126.949,77.5C127.135,79.324 127,81.167 127,83V89.833V96.667V103.333V110.333V117V123.833V130.5C127,131.035 126.747,131.62 126.334,131.96C126.105,132.148 125.534,132.819 125.783,132.657C125.633,132.754 125.156,132.967 125.333,132.949C124.228,133.062 123.111,133 122,133H117.5H108.5H99.5H90.5H81.333H72.333H63.333H54.333C53.799,133 53.213,132.747 52.874,132.334C52.396,131.754 51.833,131.085 51.833,130.333V123.5V116.833V110V103.333V96.5V89.833V83.167C51.833,81.057 50.87,78.214 52.499,76.874L53.499,75.874C54.123,75.361 54.863,74.92 55.657,74.773L56.96,73.334L57.96,72.334C58.339,71.874 59.071,71.881 59.657,71.773L60.96,70.334L61.96,69.334C62.339,68.874 63.071,68.881 63.657,68.773L64.96,67.334C65.339,66.874 66.071,66.881 66.657,66.773L67.96,65.334C68.339,64.874 69.071,64.881 69.657,64.773L70.96,63.334L71.96,62.334C72.339,61.874 73.071,61.881 73.657,61.773L74.96,60.334C75.339,59.874 76.071,59.881 76.657,59.773L77.96,58.334L78.96,57.334C79.339,56.874 80.071,56.881 80.657,56.773L81.96,55.334C82.339,54.874 83.071,54.881 83.657,54.773L84.96,53.334L85.96,52.334C86.339,51.874 87.071,51.881 87.657,51.773L88.883,50.334L89.5,49.945Z"/></g></svg>