<svg xmlns="http://www.w3.org/2000/svg" width="192" height="192" viewBox="0 0 192 192" style="background:transparent"><g id="color-e1373e"><path fill="#E1373E" fill-rule="evenodd" d="M171.108,70.166C171.05,70.337 171.239,70.835 171.108,70.709C171.164,70.763 171.349,70.893 171.276,70.87C171.706,71.007 172.173,71 172.625,71C173.417,71 174.346,70.976 174.949,71.489C175.394,71.867 176.041,71.992 176.625,72C177.14,72.007 177.678,72.241 178.051,72.597L180.057,74.603L181.916,76.462C182.089,76.694 182.435,76.849 182.709,76.765C182.926,76.541 183.006,76.186 182.993,75.875L182.893,74.875L182.987,73.375C182.996,73.209 182.97,72.71 182.992,72.875C182.981,72.792 182.924,72.55 182.959,72.626C182.906,72.509 182.696,72.197 182.798,72.275C182.472,72.025 182.036,71.874 181.625,71.893L181,71.953C180.595,71.929 180.226,71.654 179.926,71.382C179.65,71.131 179.247,71.018 178.875,70.998L177.375,70.875C176.865,70.872 176.314,70.716 175.926,70.386C175.389,69.93 174.58,69.875 173.875,69.875H172.5C172.026,69.875 171.451,69.838 171.108,70.166ZM60.994,70.875C60.945,71.294 60.699,71.706 60.379,71.98L59.851,72.507C59.44,72.922 59.005,73.42 58.937,74C58.894,74.364 58.634,74.683 58.382,74.949C58.148,75.195 57.991,75.537 57.958,75.875C57.918,76.279 57.659,76.651 57.382,76.949C57.155,77.194 57.033,77.542 56.994,77.875C56.945,78.294 56.699,78.706 56.379,78.98L55.851,79.507C55.44,79.922 55.005,80.42 54.937,81C54.894,81.364 54.632,81.68 54.382,81.949C54.155,82.194 54.033,82.542 53.994,82.875C53.945,83.293 53.689,83.692 53.382,83.98C53.145,84.202 53.031,84.552 52.994,84.875C52.945,85.294 52.699,85.706 52.379,85.98L51.851,86.507C51.44,86.922 51.005,87.42 50.937,88C50.894,88.364 50.634,88.683 50.382,88.949C50.148,89.195 49.991,89.537 49.958,89.875C49.918,90.279 49.662,90.654 49.382,90.949C49.148,91.195 48.991,91.537 48.958,91.875C48.918,92.279 48.662,92.654 48.382,92.949C48.148,93.195 47.988,93.537 47.958,93.875C47.921,94.29 47.686,94.704 47.374,94.98L46.849,95.505C46.44,95.922 46.005,96.42 45.937,97C45.894,97.364 45.634,97.683 45.382,97.949C45.148,98.195 44.991,98.537 44.958,98.875C44.918,99.279 44.662,99.654 44.382,99.949C44.148,100.195 43.991,100.537 43.958,100.875C43.918,101.279 43.659,101.651 43.382,101.949C43.155,102.194 43.033,102.542 42.994,102.875C42.945,103.293 42.692,103.695 42.381,103.98C42.138,104.203 41.99,104.546 41.958,104.875C41.914,105.328 41.589,105.732 41.265,106.051L40.375,106.941C40.115,107.219 39.981,107.622 39.937,108C39.894,108.364 39.634,108.683 39.382,108.949C39.148,109.195 38.991,109.537 38.958,109.875C38.914,110.328 38.589,110.732 38.265,111.051L36.517,112.8C36.246,113.001 36.001,113.392 36.108,113.709C36.305,113.898 36.603,113.994 36.875,113.991L37.875,113.884L39.125,113.997L39.75,113.927H40.5C41.109,114.013 41.999,113.487 41.991,112.875L41.889,112C41.903,111.589 42.208,111.22 42.495,110.926C42.766,110.649 42.996,110.262 42.991,109.875L42.889,109C42.903,108.59 43.21,108.224 43.493,107.926C43.727,107.68 43.884,107.338 43.917,107C43.957,106.595 44.211,106.217 44.495,105.926C44.766,105.649 44.996,105.262 44.991,104.875L44.885,103.875C44.909,103.491 45.202,103.143 45.496,102.895C46.055,102.424 46.768,102 47.5,102L50,101.875H52.75H55.5H58.25H61H63.875H66.5H69.25H71.876L72.75,102C73.229,102.008 73.707,102.275 74.051,102.608C74.474,103.018 74.891,103.539 74.958,104.125C74.997,104.474 75.254,104.776 75.496,105.031C75.768,105.318 75.912,105.732 75.958,106.125C75.998,106.474 76.254,106.776 76.496,107.031C76.768,107.318 76.912,107.732 76.958,108.125C76.998,108.474 77.254,108.776 77.496,109.031C77.77,109.321 77.999,109.726 77.982,110.125L77.878,111.125L77.963,112.125L77.88,112.875C77.887,113.429 78.571,113.991 79.125,113.978L79.875,113.897L81.5,114H83.626L84.625,113.949C85.01,114 85.486,113.978 85.767,113.709C85.888,113.35 85.543,112.937 85.252,112.693L83.933,111.374C83.491,110.914 82.991,110.385 82.917,109.75C82.877,109.401 82.621,109.099 82.379,108.844C82.107,108.557 81.963,108.143 81.917,107.75C81.877,107.401 81.621,107.099 81.379,106.844C81.107,106.557 80.963,106.143 80.917,105.75C80.877,105.401 80.62,105.1 80.379,104.844C80.136,104.586 79.974,104.228 79.94,103.875C79.902,103.485 79.654,103.119 79.374,102.844L78.487,101.957C78.18,101.638 77.969,101.191 77.917,100.75C77.877,100.401 77.621,100.099 77.379,99.844C77.105,99.554 76.876,99.149 76.893,98.75L76.99,97.875C76.965,97.476 76.663,97.122 76.375,96.844L75.488,95.957C75.18,95.638 74.969,95.191 74.917,94.75C74.877,94.401 74.621,94.099 74.379,93.844C74.107,93.557 73.963,93.143 73.917,92.75C73.877,92.401 73.621,92.099 73.379,91.844C73.105,91.554 72.876,91.149 72.893,90.75L72.99,89.875C72.965,89.476 72.663,89.122 72.375,88.844L71.488,87.957C71.18,87.638 70.969,87.191 70.917,86.75C70.877,86.401 70.621,86.099 70.379,85.844C70.107,85.557 69.963,85.143 69.917,84.75C69.877,84.401 69.621,84.099 69.379,83.844C69.107,83.557 68.963,83.143 68.917,82.75C68.877,82.401 68.621,82.099 68.379,81.844C68.107,81.557 67.963,81.143 67.917,80.75C67.877,80.401 67.621,80.099 67.379,79.844C67.107,79.557 66.963,79.143 66.917,78.75C66.877,78.401 66.621,78.099 66.379,77.844C66.107,77.557 65.963,77.143 65.917,76.75C65.877,76.401 65.621,76.099 65.379,75.844C65.107,75.557 64.963,75.143 64.917,74.75C64.877,74.401 64.621,74.099 64.379,73.844C64.107,73.557 63.963,73.143 63.917,72.75C63.879,72.416 63.629,72.122 63.381,71.895C63.073,71.614 62.925,71.165 62.874,70.75C62.822,70.321 62.307,69.902 61.875,69.922C61.443,69.942 61.044,70.445 60.994,70.875ZM60.498,77.082C60.759,77.195 60.965,77.415 61.156,77.626L63.418,79.888C63.698,80.24 64.001,80.678 63.982,81.125L63.885,82C63.91,82.399 64.212,82.753 64.5,83.031L65.387,83.918C65.695,84.237 65.906,84.684 65.958,85.125C65.998,85.474 66.254,85.776 66.496,86.031C66.768,86.318 66.912,86.732 66.958,87.125C66.998,87.474 67.254,87.776 67.496,88.031C67.768,88.318 67.912,88.732 67.958,89.125C67.998,89.474 68.254,89.776 68.496,90.031C68.768,90.318 68.912,90.732 68.958,91.125C68.998,91.474 69.254,91.776 69.496,92.031C69.77,92.321 69.999,92.726 69.982,93.125L69.885,94C69.91,94.399 70.212,94.753 70.5,95.031L71.387,95.918C71.663,96.21 71.875,96.601 71.926,97C71.967,97.32 72.145,97.635 72.381,97.855C72.543,98.005 72.704,98.174 72.793,98.377C72.747,98.69 72.485,98.944 72.249,99.156C71.796,99.563 71.234,100.007 70.625,99.993H65.5H60.5H55.375H50.5C49.871,100.008 49.221,99.683 48.75,99.265C48.473,99.019 48.136,98.743 48.082,98.377C48.189,98.133 48.412,97.956 48.603,97.77C48.832,97.547 48.914,97.193 48.953,96.875C48.998,96.504 49.221,96.144 49.501,95.895L50.026,95.37C50.435,94.953 50.87,94.455 50.938,93.875C50.981,93.511 51.241,93.192 51.493,92.926C51.727,92.68 51.884,92.338 51.917,92C51.957,91.596 52.213,91.221 52.493,90.926C52.727,90.68 52.884,90.338 52.917,90C52.957,89.596 53.213,89.221 53.493,88.926C53.727,88.68 53.884,88.338 53.917,88C53.957,87.596 54.216,87.224 54.493,86.926C54.72,86.681 54.842,86.333 54.881,86C54.93,85.582 55.186,85.183 55.493,84.895C55.73,84.673 55.844,84.323 55.881,84C55.93,83.581 56.176,83.169 56.496,82.895L57.024,82.368C57.435,81.953 57.87,81.455 57.938,80.875C57.981,80.511 58.243,80.195 58.493,79.926C58.72,79.681 58.842,79.333 58.881,79C58.931,78.566 59.189,78.154 59.496,77.844C59.792,77.546 60.083,77.143 60.498,77.082ZM157.844,69.489C157.33,69.916 156.544,69.875 155.875,69.875L154,70C153.582,70.019 153.167,70.222 152.844,70.489C152.387,70.867 151.718,70.933 151.125,70.955C150.663,70.972 150.201,71.194 149.844,71.489C149.573,71.713 149.219,71.831 148.875,71.904C148.488,71.986 148.136,72.226 147.844,72.494C147.549,72.765 147.147,72.934 146.75,72.996C146.41,73.05 146.101,73.263 145.844,73.493C145.581,73.73 145.223,73.864 144.875,73.926C144.488,73.995 144.12,74.221 143.844,74.501L141.28,77.065L138.845,79.5C138.442,79.923 138.005,80.42 137.937,81C137.894,81.364 137.634,81.683 137.382,81.949C137.148,82.195 136.991,82.537 136.958,82.875C136.918,83.28 136.664,83.658 136.38,83.949C136,84.338 135.874,84.956 135.875,85.5L135.949,86.5C136.014,87.015 135.743,87.578 135.38,87.949C135.083,88.253 134.865,88.7 134.882,89.125L134.969,89.875C134.969,91.375 135.097,92.885 134.925,94.375C134.859,94.955 135.091,95.61 135.495,96.031C135.772,96.319 135.999,96.726 135.982,97.125L135.885,98C135.91,98.398 136.218,98.743 136.495,99.031C136.772,99.319 136.999,99.726 136.982,100.125L136.885,101C136.91,101.399 137.212,101.753 137.5,102.031L138.387,102.918C138.695,103.237 138.906,103.684 138.958,104.125C138.998,104.475 139.249,104.784 139.501,105.031L141.5,107.03C141.957,107.466 142.508,107.87 143.125,108.003C143.486,108.081 143.791,108.348 144.051,108.61L145.486,110.045C145.957,110.466 146.508,110.87 147.125,111.003C147.437,111.071 147.713,111.278 147.949,111.493C148.291,111.806 148.787,112.004 149.25,111.982L149.875,111.922C150.28,111.946 150.65,112.219 150.949,112.493C151.26,112.779 151.703,112.984 152.125,112.963L152.875,112.885C153.285,112.91 153.648,113.213 153.949,113.493C154.339,113.855 154.967,113.875 155.5,113.875H160.127H164.752H169.502H174.002H175.875C176.293,113.856 176.708,113.653 177.031,113.386C177.299,113.164 177.654,113.038 178,112.996L179.25,112.876H180C180.385,112.884 180.76,112.648 181.031,112.374L182.03,111.375C182.402,110.984 182.819,110.535 182.881,110C182.93,109.582 183.183,109.179 183.494,108.895C183.774,108.64 183.937,108.25 183.996,107.875C184.054,107.514 184.323,107.195 184.607,106.964L184.916,106.607C184.941,106.373 184.812,106.088 184.607,105.971C184.287,105.971 184.015,106.256 183.808,106.5L180.371,109.938C179.908,110.391 179.39,110.904 178.75,111.005C178.412,111.058 178.108,111.271 177.844,111.489C177.387,111.867 176.718,111.933 176.125,111.955C175.663,111.972 175.201,112.194 174.844,112.489C173.852,113.309 172.288,112.875 171,112.875H167.25H163.375H159.625C159.036,112.875 158.377,112.766 157.926,112.386C157.609,112.119 157.165,111.978 156.75,111.98C156.11,111.982 155.392,111.82 154.926,111.382C154.619,111.093 154.172,110.891 153.75,110.912L153,110.99C152.54,110.962 152.147,110.593 151.824,110.265L150.935,109.376C150.621,109.085 150.168,108.962 149.75,108.872C149.389,108.794 149.084,108.527 148.824,108.265L146.61,106.051L144.502,103.943C144.18,103.638 143.969,103.191 143.917,102.75C143.877,102.4 143.626,102.091 143.374,101.844L142.487,100.957C142.177,100.635 141.874,100.197 141.893,99.75L141.99,98.875C141.965,98.477 141.657,98.132 141.38,97.844C141.103,97.556 140.876,97.149 140.893,96.75L140.99,95.875C140.965,95.477 140.657,95.132 140.38,94.844C140.103,94.556 139.876,94.149 139.893,93.75L140,92.125V87.625L139.926,86.375C139.861,85.86 140.132,85.297 140.495,84.926C140.766,84.649 140.996,84.262 140.991,83.875L140.889,83C140.903,82.59 141.21,82.224 141.493,81.926C141.727,81.68 141.884,81.338 141.917,81C141.961,80.547 142.286,80.143 142.61,79.824L143.5,78.934C143.759,78.656 143.907,78.254 143.936,77.875C143.965,77.5 144.21,77.14 144.496,76.895C144.983,76.48 145.493,75.979 146.125,75.879C146.466,75.825 146.788,75.62 147.031,75.374L148.599,73.806C149.148,73.257 149.974,72.949 150.75,72.92C151.212,72.903 151.674,72.681 152.031,72.386C152.488,72.008 153.157,71.942 153.75,71.92C154.212,71.903 154.674,71.681 155.031,71.386C155.483,71.012 156.163,71 156.75,71C157.537,71 158.425,70.889 159.031,70.386C159.483,70.011 160.163,70 160.75,70H164.625H168.375C168.849,70 169.424,70.037 169.767,69.709C169.825,69.538 169.636,69.04 169.767,69.166C169.711,69.112 169.526,68.982 169.599,69.005C169.169,68.868 168.702,68.875 168.25,68.875H164H159.875C159.168,68.875 158.388,69.037 157.844,69.489ZM94.108,69.166C94.001,69.482 94.247,69.872 94.501,70.089L95.379,70.875C95.728,71.178 96.006,71.663 95.982,72.125L95.875,73.75V78.375V82.875V87.5V92V96.625V101.125V105.625V110.125L95.949,111.375C96.02,111.911 95.78,112.528 95.382,112.895C95.172,113.09 95.016,113.438 95.108,113.709C95.334,113.925 95.688,114.002 96,113.997L97,113.912L98.5,114L99.625,113.926H100.625C101.01,114 101.486,113.978 101.767,113.709C101.874,113.393 101.628,113.003 101.374,112.786L100.496,112C100.147,111.697 99.869,111.212 99.893,110.75L100,109.125V105.75V102.375V98.875V95.625L99.926,94.375C99.855,93.814 100.205,93.218 100.61,92.824C101.158,92.291 101.986,92 102.75,92H106.5C107.7,92 109.164,91.786 110.051,92.594C110.46,92.967 110.893,93.448 110.936,94C110.966,94.391 111.221,94.757 111.501,95.031L114.388,97.918C114.695,98.237 114.906,98.684 114.958,99.125C114.998,99.475 115.249,99.784 115.501,100.031L118.065,102.595L120.615,105.145L123.065,107.595L125.5,110.03C125.957,110.466 126.508,110.87 127.125,111.003C127.437,111.071 127.713,111.278 127.949,111.493C128.264,111.782 128.707,111.913 129.125,112.003C129.437,112.071 129.713,112.278 129.949,112.493C130.264,112.782 130.707,112.913 131.125,113.003C131.437,113.071 131.712,113.279 131.949,113.493C132.344,113.851 132.968,113.875 133.5,113.875L134.625,113.949C135.01,114 135.486,113.978 135.767,113.709C135.874,113.393 135.628,113.003 135.374,112.786C134.973,112.442 134.522,112.077 134,111.995C133.544,111.923 133.147,111.594 132.824,111.265L129.389,107.83L126.159,104.6L122.824,101.265L119.502,97.943C119.18,97.638 118.969,97.191 118.917,96.75C118.877,96.4 118.626,96.091 118.374,95.844L115.487,92.957C115.094,92.553 114.871,91.939 114.875,91.375C114.879,90.803 115.201,90.224 115.61,89.824C116.035,89.407 116.537,88.972 117.125,88.879C117.466,88.825 117.788,88.62 118.031,88.374L120.03,86.375C120.433,85.952 120.87,85.455 120.938,84.875C120.981,84.511 121.241,84.192 121.493,83.926C121.727,83.68 121.884,83.338 121.917,83C121.957,82.595 122.211,82.217 122.495,81.926C122.792,81.622 123.01,81.175 122.993,80.75L122.906,80L122.999,78.875L122.95,77.5C123.016,76.92 122.784,76.266 122.38,75.844C122.135,75.588 121.974,75.228 121.94,74.875C121.902,74.485 121.654,74.119 121.374,73.844L119.375,71.845C118.918,71.409 118.367,71.005 117.75,70.872C117.438,70.804 117.162,70.597 116.926,70.382C116.613,70.095 116.174,69.887 115.75,69.897L115,69.977C114.593,69.951 114.232,69.66 113.926,69.391C113.616,69.117 113.163,69.019 112.75,68.998C111.834,68.951 110.918,68.875 110,68.875H107.25H104.5H101.75L100.5,68.949C99.095,69.128 97.654,68.761 96.25,68.949H95.25C94.865,68.875 94.389,68.897 94.108,69.166ZM102.75,70H107.5C108.992,70 110.825,69.516 111.949,70.498C112.2,70.718 112.544,70.836 112.875,70.882C113.332,70.944 113.728,71.281 114.051,71.61L116.373,73.932C116.695,74.237 116.906,74.684 116.958,75.125C116.998,75.474 117.254,75.776 117.496,76.031C117.77,76.321 117.999,76.726 117.982,77.125L117.875,78.75V83.501C118.014,84.014 117.739,84.573 117.382,84.949C117.122,85.223 116.994,85.624 116.96,86C116.925,86.378 116.667,86.733 116.379,86.98L114.964,88.394C114.694,88.631 114.353,88.822 114,88.888C113.572,88.967 113.168,89.203 112.844,89.493C112.613,89.7 112.305,89.831 112,89.888C111.572,89.967 111.168,90.203 110.844,90.493C109.823,91.407 108.121,90.875 106.75,90.875H102.625C101.991,90.875 101.275,90.708 100.824,90.263C100.402,89.847 99.868,89.342 99.893,88.75L100,87.125V83.75V80.375V77V73.625L99.926,72.375C99.853,71.803 100.174,71.163 100.61,70.786C101.184,70.288 101.99,70 102.75,70Z"/></g><g id="color-e8696e"><path fill="#E8696E" fill-rule="evenodd" d="M42.166,111.108C41.949,111.334 41.904,111.689 41.872,112C41.768,113.036 40.416,113.879 39.375,113.875C38.888,113.873 38.386,113.679 38,113.382L37.5,113.082C37.218,113.122 36.975,113.318 36.75,113.493C36.149,113.96 35.261,113.875 34.5,113.875C34.026,113.875 33.451,113.838 33.108,114.166C33.05,114.337 33.239,114.835 33.108,114.709C33.164,114.763 33.349,114.893 33.276,114.87C33.706,115.007 34.173,115 34.625,115H38.125H41.376L42.375,114.949L43,114.997C43.273,114.988 43.57,114.898 43.767,114.709C43.872,114.399 43.618,114.027 43.375,113.808C43.117,113.575 42.893,113.222 42.909,112.875L42.999,112C42.997,111.618 42.759,110.992 42.38,111.036L42.166,111.108ZM155.307,111.056L155.161,111.498C155.217,112.036 155.845,112.34 156.249,112.699C156.461,112.887 156.675,113.106 156.762,113.375C156.692,113.593 156.534,113.777 156.382,113.949C156.22,114.131 156.066,114.364 156.066,114.607C156.241,114.895 156.663,115.002 157,114.997L157.875,114.906L159.5,115H162.751H166.125H169.376H173.5C173.95,115.02 174.574,114.994 174.809,114.607C174.809,114.332 174.584,114.092 174.391,113.895L174.118,113.495C174.15,113.257 174.325,113.055 174.484,112.875C174.608,112.734 174.71,112.557 174.737,112.371C174.624,112.06 174.206,111.876 173.875,111.878C173.042,111.884 172.205,112.005 171.375,111.926C170.832,111.875 170.223,112.11 169.844,112.503L169.269,113.078C169.159,113.176 168.842,113.485 168.949,113.383C168.877,113.451 168.649,113.637 168.734,113.587C168.614,113.657 168.237,113.823 168.374,113.798C167.473,113.965 166.542,113.875 165.625,113.875C164.993,113.875 164.281,113.715 163.824,113.278L162.928,112.383C162.625,112.086 162.174,111.887 161.75,111.897L161,111.978L159.375,111.875L158.25,111.924C157.77,111.968 157.268,111.709 156.906,111.391C156.591,111.114 156.169,110.864 155.751,110.892L155.307,111.056ZM83.268,109.971C83.063,110.088 82.934,110.373 82.959,110.607C83.085,110.818 83.301,110.963 83.496,111.111L84.014,111.629C84.302,111.877 84.641,112.134 84.742,112.5C84.461,113.368 83.287,113.874 82.375,113.875H79.625C79.059,113.875 78.447,113.729 78,113.382C77.791,113.219 77.534,113.066 77.269,113.066C77.013,113.221 76.88,113.576 76.88,113.875C76.88,114 76.959,114.367 76.916,114.249C76.946,114.329 77.064,114.553 77.005,114.49C77.093,114.585 77.389,114.822 77.269,114.774C77.81,114.989 78.418,115 79,115H81.75H84.376C85.451,114.802 86.541,115.003 87.625,115C87.792,115 88.29,114.97 88.125,114.992C88.207,114.981 88.446,114.922 88.372,114.959C88.479,114.906 88.745,114.69 88.693,114.798C88.785,114.607 88.835,114.367 88.767,114.166C88.54,113.949 88.186,113.908 87.875,113.868C87.474,113.817 87.112,113.547 86.824,113.263L83.861,110.3C83.756,110.122 83.581,109.956 83.38,109.956L83.268,109.971ZM150.962,109.606L151.377,110.021L152.074,110.61C152.36,110.903 152.706,111.213 152.778,111.616C152.699,111.797 152.534,111.934 152.375,112.051C152.088,112.262 151.859,112.645 151.883,113C151.92,113.527 152.597,113.998 153.125,113.986C153.385,113.979 153.674,113.83 153.809,113.607C153.809,113.317 153.577,113.066 153.391,112.844C153.25,112.677 153.136,112.474 153.097,112.259C153.176,112.079 153.339,111.945 153.494,111.824C153.774,111.606 153.995,111.229 153.977,110.875C153.951,110.382 153.358,109.987 152.875,109.883C152.496,109.802 152.161,109.54 151.895,109.258C151.759,109.112 151.574,108.987 151.376,108.957C151.142,109.064 150.949,109.35 150.962,109.606ZM130.268,107.971C130.063,108.088 129.934,108.373 129.959,108.607C130.04,108.742 130.4,109.05 130.268,108.964C130.344,109.013 130.562,109.172 130.495,109.111C130.599,109.205 130.893,109.504 130.808,109.393C131.532,110.343 132.459,111.128 133.374,111.895C133.538,112.033 133.702,112.188 133.793,112.382C133.746,112.698 133.479,112.945 133.259,113.176C133.051,113.395 132.878,113.699 132.886,114C132.889,114.126 133.012,114.482 132.952,114.372C132.994,114.448 133.142,114.656 133.077,114.599C133.141,114.655 133.351,114.79 133.269,114.767C133.666,114.876 134.088,114.875 134.5,114.875H135.375C135.917,114.875 136.515,114.744 136.926,114.391C137.116,114.228 137.366,114.096 137.616,114.096C137.831,114.207 137.977,114.425 138.12,114.621L138.758,115.258C139.096,115.573 139.538,115.89 140,115.871C140.37,115.856 140.712,115.621 141,115.388C141.374,115.085 141.921,114.621 141.767,114.166C141.57,113.977 141.272,113.881 141,113.884L139.875,113.997L139.25,113.926C138.736,113.855 138.166,113.671 137.839,113.268C137.62,112.998 137.221,112.901 136.875,112.873C136.51,112.844 136.15,112.64 135.895,112.377C135.606,112.079 135.162,111.941 134.751,111.879C134.443,111.832 134.148,111.625 133.964,111.374L130.876,108.286C130.756,108.122 130.581,107.956 130.38,107.956L130.268,107.971ZM184.267,104.99L181.356,107.901C181.048,108.248 180.756,108.62 180.379,108.891L179.395,109.875L178.839,110.491C178.579,110.827 178.049,110.871 177.625,110.875C176.964,110.882 175.878,111.215 175.914,111.875C175.94,112.353 176.297,112.771 176.619,113.125C177.034,113.58 177.635,114.007 178.25,113.991L179.125,113.879C179.522,113.821 179.968,113.401 179.95,113C179.932,112.607 179.632,112.269 179.378,111.969C179.236,111.802 179.114,111.599 179.082,111.382C179.193,111.145 179.419,110.977 179.619,110.808L180.919,109.509C181.037,109.342 181.196,109.196 181.382,109.118C181.994,109.197 182.556,109.786 182.742,110.374C182.672,110.626 182.463,110.826 182.267,111L181.397,111.87C181.204,112.018 181.009,112.252 181.036,112.493C181.056,112.67 181.226,112.817 181.384,112.897C181.676,112.868 181.909,112.611 182.105,112.392L183.506,110.991C183.799,110.714 184.01,110.278 183.993,109.875L183.889,109C183.903,108.617 184.211,108.281 184.493,108.02C184.643,107.881 184.773,107.699 184.824,107.5C184.759,107.246 184.556,107.049 184.393,106.844C184.265,106.683 184.171,106.474 184.171,106.269L184.595,105.845C184.778,105.718 184.904,105.488 184.904,105.268C184.803,105.091 184.579,104.906 184.38,104.95L184.267,104.99ZM144.268,102.971C144.063,103.088 143.934,103.373 143.959,103.607L146.476,106.124L148.974,108.622C149.116,108.764 149.301,108.888 149.499,108.918C149.733,108.811 149.926,108.525 149.913,108.268L147.398,105.753L144.904,103.258C144.756,103.122 144.581,102.956 144.38,102.956L144.268,102.971ZM42.808,101.499L42.268,102C42.002,102.24 41.902,102.643 41.873,103C41.842,103.393 41.572,103.767 41.266,104.016C40.992,104.239 40.908,104.648 40.872,105C40.835,105.367 40.558,105.699 40.268,105.926L39.959,106.268C39.934,106.502 40.063,106.788 40.268,106.904C40.587,106.904 40.858,106.617 41.067,106.376L41.607,105.875C41.873,105.635 41.973,105.232 42.002,104.875C42.033,104.482 42.303,104.108 42.609,103.859C42.883,103.636 42.967,103.227 43.003,102.875C43.04,102.508 43.317,102.176 43.607,101.949L43.916,101.607C43.941,101.373 43.812,101.087 43.607,100.971C43.288,100.971 43.017,101.258 42.808,101.499ZM115.268,99.971C115.063,100.088 114.934,100.373 114.959,100.607L117.276,102.924L119.476,105.124L121.777,107.424L123.97,109.618C124.14,109.775 124.376,109.904 124.607,109.904C124.812,109.787 124.941,109.502 124.916,109.268L122.599,106.951L120.399,104.751L118.098,102.451L115.905,100.257C115.756,100.122 115.581,99.956 115.38,99.956L115.268,99.971ZM119.268,96.971C119.063,97.088 118.934,97.373 118.959,97.607L121.476,100.124L123.97,102.618C124.14,102.775 124.376,102.904 124.607,102.904C124.812,102.787 124.941,102.502 124.916,102.268L122.399,99.751L119.905,97.257C119.756,97.122 119.581,96.956 119.38,96.956L119.268,96.971ZM70.38,94.993C70.154,95.09 69.971,95.361 69.971,95.607L70.387,96.024C70.655,96.264 70.877,96.639 70.869,97C70.861,97.404 70.553,97.768 70.265,98.051C70.157,98.157 69.841,98.48 69.949,98.374C69.877,98.444 69.648,98.636 69.734,98.585C69.614,98.656 69.237,98.824 69.374,98.798C68.186,99.018 66.958,98.875 65.75,98.875H61H56.25H51.625C51.019,98.875 50.359,98.743 49.875,98.377C49.591,98.163 49.231,97.996 48.875,98.003C48.408,98.013 47.88,98.533 47.889,99C47.899,99.471 48.529,99.859 49,99.876C50.708,99.934 52.416,100 54.125,100H59.125H64.25H69.125L71.125,99.879C71.25,99.882 71.625,99.895 71.5,99.895C71.583,99.895 71.833,99.891 71.75,99.895C71.875,99.889 72.248,99.857 72.125,99.876C72.287,99.851 72.719,99.648 72.606,99.767C72.829,99.533 73.005,99.198 72.99,98.875C72.973,98.525 72.737,98.202 72.496,97.949C72.224,97.663 72.033,97.268 71.998,96.875C71.962,96.466 71.687,96.081 71.38,95.808C71.059,95.522 70.806,95.052 70.38,94.993ZM72.835,91C72.851,91.353 73.1,91.689 73.375,91.911C73.686,92.162 73.845,92.602 73.877,93C73.905,93.349 74.098,93.711 74.375,93.926C74.687,94.169 74.845,94.606 74.877,95C74.906,95.359 75.109,95.72 75.38,95.957L75.906,96.483C76.073,96.701 76.333,96.904 76.607,96.904C76.812,96.788 76.941,96.502 76.916,96.268L76.501,95.854C76.204,95.636 76.031,95.241 75.998,94.875C75.967,94.526 75.777,94.164 75.5,93.949C75.188,93.706 75.03,93.269 74.998,92.875C74.97,92.526 74.777,92.164 74.5,91.949C74.188,91.706 74.03,91.269 73.998,90.875C73.976,90.603 73.899,90.306 73.709,90.11C73.312,89.989 72.817,90.584 72.835,91ZM139.875,86.625V90V93.375C139.875,93.849 139.838,94.424 140.166,94.767C140.337,94.825 140.835,94.636 140.709,94.767C140.763,94.711 140.893,94.526 140.87,94.599C141.007,94.169 141,93.702 141,93.25V89.875V86.5C141,86.026 141.037,85.451 140.709,85.108C140.538,85.05 140.04,85.239 140.166,85.108C140.112,85.164 139.982,85.349 140.005,85.276C139.868,85.706 139.875,86.173 139.875,86.625ZM64.38,82.993C64.154,83.09 63.971,83.361 63.971,83.607L64.387,84.024C64.656,84.264 64.836,84.64 64.875,85C64.913,85.349 65.098,85.711 65.375,85.926C65.687,86.169 65.845,86.606 65.877,87C65.905,87.349 66.098,87.711 66.375,87.926C66.687,88.169 66.845,88.606 66.877,89C66.905,89.349 67.098,89.711 67.375,89.926C67.687,90.169 67.845,90.606 67.877,91C67.905,91.349 68.098,91.711 68.375,91.926C68.687,92.169 68.845,92.606 68.877,93C68.901,93.299 69.012,93.654 69.269,93.809C69.68,93.809 70.094,93.286 70.075,92.875C70.059,92.516 69.78,92.189 69.5,91.964C69.189,91.713 69.03,91.273 68.998,90.875C68.97,90.526 68.777,90.164 68.5,89.949C68.188,89.706 68.03,89.269 67.998,88.875C67.97,88.526 67.777,88.164 67.5,87.949C67.188,87.706 67.03,87.269 66.998,86.875C66.97,86.526 66.777,86.164 66.5,85.949C66.188,85.706 66.03,85.269 65.998,84.875C65.969,84.516 65.766,84.155 65.495,83.918L64.969,83.392C64.824,83.201 64.616,83.025 64.38,82.993ZM122.166,82.11C121.948,82.335 121.898,82.689 121.873,83C121.842,83.393 121.572,83.767 121.266,84.016C120.992,84.239 120.913,84.649 120.868,85C120.82,85.374 120.544,85.703 120.266,85.957L118.375,87.847C118.204,88.018 118.009,88.252 118.036,88.493C118.056,88.67 118.226,88.817 118.384,88.897C118.676,88.868 118.909,88.611 119.105,88.392L121.614,85.883C121.873,85.635 121.973,85.232 122.002,84.875C122.034,84.476 122.3,84.094 122.609,83.839C122.88,83.614 123.055,83.227 123.04,82.875C123.024,82.522 122.732,82.016 122.38,82.045L122.166,82.11ZM59.874,77C59.856,77.375 59.576,77.741 59.259,77.942L58.934,78.267C58.907,78.528 59.118,78.854 59.371,78.919C59.622,78.852 59.789,78.594 59.933,78.378L60.268,78.043C60.601,78.055 60.87,78.36 61.09,78.61L61.895,79.498L62.486,80.088C62.737,80.306 62.847,80.67 62.877,81C62.903,81.298 63.012,81.654 63.269,81.809C63.68,81.809 64.094,81.286 64.075,80.875C64.058,80.507 63.769,80.18 63.495,79.933L62.361,78.8C62.154,78.544 62.046,78.197 61.986,77.875C61.913,77.483 61.659,77.127 61.379,76.844C61.059,76.522 60.714,76.066 60.26,76.066C59.967,76.233 59.89,76.664 59.874,77ZM56.808,76.498L56.268,77C56.002,77.241 55.908,77.643 55.872,78C55.839,78.333 55.632,78.655 55.379,78.875L54.251,80.003C54.005,80.262 53.819,80.643 53.835,81C53.852,81.387 54.339,81.878 54.709,81.765C54.927,81.54 54.971,81.186 55.003,80.875C55.036,80.542 55.243,80.22 55.496,80L56.618,78.878C56.885,78.64 56.971,78.231 57.003,77.875C57.036,77.508 57.317,77.176 57.607,76.949C57.755,76.833 57.88,76.673 57.94,76.495C57.915,76.26 57.721,76.012 57.495,75.941C57.207,76.003 56.998,76.273 56.808,76.498ZM143.38,73.971L142.895,74.375L139.998,77.273L137.259,80.011C137.005,80.262 136.819,80.643 136.835,81C136.852,81.387 137.339,81.878 137.709,81.765C137.927,81.54 137.967,81.185 138.007,80.875C138.055,80.501 138.331,80.172 138.609,79.918L141.302,77.226L143.918,74.61C143.941,74.373 143.812,74.088 143.607,73.971H143.38ZM180.401,70.983C180.222,71.162 180.156,71.483 180.233,71.724C180.425,71.917 180.729,71.978 181,72.002C181.41,72.038 181.803,72.309 182.067,72.625C182.407,73.033 182.817,73.472 182.875,74C182.916,74.375 183.352,74.888 183.709,74.767C184.009,74.454 184.001,73.933 184,73.5C184,73.375 183.991,73 183.998,73.125C183.993,73.042 183.969,72.793 183.983,72.875C183.969,72.792 183.905,72.549 183.939,72.626C183.887,72.508 183.685,72.19 183.783,72.273C183.501,72.034 183.116,71.924 182.75,71.87C182.424,71.821 182.116,71.616 181.895,71.371C181.643,71.09 181.252,70.863 180.875,70.879L180.401,70.983ZM150.859,70.498C150.618,70.7 150.309,70.83 150,70.888C149.572,70.967 149.167,71.202 148.844,71.493C148.518,71.789 148.056,71.908 147.626,72.003C147.222,72.093 146.865,72.587 146.885,73C146.904,73.399 147.215,73.747 147.495,74.031C147.772,74.311 148.006,74.69 148.38,74.815C148.65,74.786 148.873,74.568 149.067,74.377C149.28,74.168 149.581,74.042 149.875,73.987C150.303,73.908 150.708,73.673 151.031,73.382C151.324,73.116 151.729,72.918 152.125,72.922L152.75,72.978C153.268,72.958 153.989,72.518 153.961,72C153.936,71.546 153.583,71.151 153.267,70.824C152.884,70.426 152.426,69.887 151.875,69.924C151.487,69.95 151.157,70.248 150.859,70.498ZM60.859,69.505C60.427,69.917 59.952,70.408 59.874,71C59.827,71.362 59.551,71.681 59.268,71.911L58.959,72.268C58.934,72.502 59.063,72.787 59.268,72.904C59.588,72.904 59.86,72.618 60.067,72.375L61.077,71.365C61.327,71.132 61.659,70.896 62,70.91C62.351,70.925 62.649,71.23 62.875,71.499C63.037,71.692 63.247,71.882 63.493,71.934C63.72,71.863 63.915,71.616 63.94,71.38C63.867,71.164 63.677,70.997 63.496,70.859C63.194,70.631 62.991,70.248 62.934,69.875C62.897,69.633 62.832,69.385 62.696,69.181C62.457,69.036 62.155,68.991 61.875,69.003C61.498,69.018 61.133,69.245 60.859,69.505ZM155.066,69.268C155.066,69.545 155.294,69.788 155.493,69.98L155.793,70.38C155.762,70.584 155.63,70.765 155.5,70.926C155.342,71.122 155.191,71.364 155.191,71.615C155.32,71.841 155.615,71.991 155.875,71.99C156.292,71.987 156.689,71.691 156.965,71.379C157.375,70.913 157.916,70.369 157.867,69.751C157.836,69.367 157.381,69.045 157,68.987L156,68.876C155.663,68.878 155.241,68.98 155.066,69.268ZM159.734,68.626C159.383,69.008 158.983,69.482 159.004,70C159.027,70.55 159.825,70.921 160.375,70.918H163.626H166.75L168.875,71C169.546,71 170.313,70.935 170.824,70.501C171.016,70.338 171.248,70.135 171.498,70.161C171.819,70.194 172.046,70.514 172.266,70.751L172.844,71.372C173.276,71.83 173.996,71.992 174.625,72C175.146,72.007 175.669,72.259 176.074,72.588C176.331,72.796 176.669,72.968 177,72.95C177.374,72.93 177.711,72.65 177.965,72.374C178.395,71.906 179.005,71.385 178.965,70.75C178.94,70.34 178.407,70.039 178,69.985L177.125,69.884C176.686,69.902 176.287,70.201 175.949,70.482L175.498,70.737C175.141,70.69 174.854,70.389 174.609,70.124L174.031,69.503C173.742,69.198 173.295,69.014 172.875,68.999L171.375,68.875C170.825,68.876 170.266,69.136 169.844,69.488C169.578,69.711 169.221,69.882 168.875,69.865C168.472,69.845 168.112,69.546 167.824,69.263L166.935,68.375C166.623,68.087 166.174,67.887 165.75,67.897L165,67.978L163.375,67.875L162.125,67.948H161.375C160.784,67.864 160.137,68.188 159.734,68.626ZM96.108,68.709C96.421,69.009 96.942,68.999 97.375,69C97.968,69.001 98.613,69.196 99.051,69.594C99.439,69.947 99.972,70.351 99.962,70.875L99.875,72.375V76.75V80.875V85.25V89.375C99.875,89.902 99.976,90.53 100.375,90.875C100.537,91.016 100.698,91.178 100.778,91.377C100.726,91.668 100.48,91.896 100.271,92.105C100.013,92.361 99.887,92.762 99.891,93.125V97.5V101.75V106.125V110.375C99.875,110.902 99.976,111.53 100.375,111.875C100.537,112.016 100.698,112.178 100.778,112.377C100.612,113.306 99.319,113.877 98.375,113.875C97.819,113.874 97.219,113.654 96.824,113.263C96.308,112.754 96,111.975 96,111.25V106.25V101.375V96.5V91.75V86.875V82.125V77.25V72.5C96,71.899 95.828,71.208 95.38,70.808L93.708,69.136C93.322,68.677 92.867,68.066 92.269,68.066C91.981,68.24 91.857,68.664 91.883,69C91.924,69.53 92.605,69.89 93.125,70.003C93.468,70.078 93.75,70.351 93.98,70.617L94.493,71.082C94.623,71.202 94.844,71.679 94.819,71.503C94.836,71.627 94.873,72 94.872,71.875C94.873,72.042 94.875,72.542 94.875,72.375C94.875,72.542 94.875,73.042 94.875,72.875C94.875,72.958 94.875,73.208 94.875,73.125C94.875,74.125 94.875,75.125 94.875,76.125V81.125V86.25V91.25V96.375V101.375V106.5V111.375C94.875,111.97 94.689,112.634 94.265,113.051C93.881,113.429 93.41,113.817 92.875,113.875C92.603,113.905 92.306,113.976 92.108,114.166C92.05,114.337 92.239,114.835 92.108,114.709C92.164,114.763 92.349,114.893 92.276,114.87C92.627,114.982 93.006,115.001 93.375,115L94.375,114.927C95.369,114.812 96.375,114.991 97.375,115H100.376C101.451,114.802 102.541,115.003 103.625,115C104.018,114.999 104.483,114.981 104.767,114.709C104.814,114.569 104.736,114.143 104.815,114.268C104.775,114.204 104.626,114.043 104.693,114.077C104.442,113.951 104.154,113.904 103.875,113.868C103.474,113.817 103.112,113.547 102.824,113.263L101.512,111.952C101.034,111.593 101,110.845 101,110.25V106V101.875V97.625C101,96.343 100.694,94.736 101.595,93.824C102.136,93.277 102.981,93 103.75,93L105.375,92.926H107.501C108.352,93 109.406,92.986 109.98,93.616C110.115,93.765 110.298,93.891 110.495,93.934C110.721,93.863 110.915,93.615 110.94,93.38C110.851,93.116 110.596,92.934 110.376,92.764C110.11,92.558 109.864,92.21 109.897,91.875C109.932,91.526 110.229,91.241 110.484,91L110.911,90.501C111.229,90.095 111.859,90 112.375,90C112.974,90 113.609,90.21 114.074,90.588C114.331,90.796 114.669,90.968 115,90.95C115.389,90.929 115.734,90.64 116.016,90.37C116.415,89.988 116.975,89.552 116.95,89C116.932,88.609 116.63,88.276 116.387,87.969L116.133,87.502C116.205,87.254 116.426,87.071 116.616,86.895C116.764,86.759 116.891,86.577 116.934,86.38C116.864,86.157 116.613,85.962 116.38,85.95L115.895,86.376L114.242,88.029C113.772,88.53 113.062,88.874 112.375,88.875C111.842,88.876 111.259,89.092 110.895,89.482C110.511,89.894 109.814,89.875 109.25,89.875H107.374C106.832,89.875 106.223,90.11 105.844,90.503L105.269,91.078C104.77,91.546 104.059,91.877 103.375,91.875C102.888,91.873 102.373,91.692 102,91.379C101.876,91.275 101.497,90.971 101.628,91.067C101.55,91.01 101.329,90.824 101.394,90.895C101.306,90.799 101.092,90.482 101.13,90.607C100.995,90.173 101,89.704 101,89.25V84.5V79.875V75.125C101,73.678 100.606,71.882 101.593,70.824L102.515,69.902C103.095,69.342 103.941,69 104.75,69C106.197,69 108.004,68.597 109.051,69.597L109.947,70.492C110.252,70.792 110.707,70.913 111.125,71.003C111.437,71.071 111.713,71.278 111.949,71.493C112.263,71.781 112.703,71.933 113.124,71.996C113.432,72.043 113.727,72.25 113.911,72.501L115.999,74.589C116.14,74.775 116.376,74.904 116.607,74.904C116.812,74.787 116.941,74.502 116.916,74.268C116.348,73.315 115.351,72.692 114.501,71.98C114.337,71.842 114.173,71.687 114.082,71.493C114.175,70.864 114.88,70.492 115.372,70.089C115.631,69.877 115.874,69.483 115.767,69.166C115.541,68.95 115.187,68.869 114.875,68.882L114,68.977C113.592,68.951 113.226,68.66 112.926,68.382C112.615,68.094 112.174,67.888 111.75,67.897C110.417,67.927 109.083,67.875 107.75,67.875H103.75L102.5,67.949C101.715,68.049 100.91,67.848 100.125,67.949H97.999C97.833,67.875 97.333,67.875 97.5,67.875C97.417,67.875 97.167,67.876 97.25,67.875C97.125,67.876 96.751,67.89 96.875,67.878C96.751,67.89 96.387,67.961 96.503,67.916C96.427,67.946 96.224,68.068 96.276,68.005C96.123,68.192 96.031,68.481 96.108,68.709Z"/></g><g id="color-2e5159"><path fill="#2E5159" fill-rule="evenodd" d="M27.75,70.61L26.985,71.375C26.715,71.676 26.278,71.837 25.875,71.878C25.493,71.916 25.157,72.202 24.895,72.482C24.672,72.721 24.323,72.831 24,72.889C23.576,72.964 23.186,73.217 22.859,73.498C22.552,73.763 22.15,73.933 21.75,73.996C21.409,74.05 21.087,74.255 20.844,74.501L19.958,75.388C19.631,75.697 19.194,75.926 18.75,75.996C18.409,76.05 18.087,76.255 17.844,76.501L15.5,78.845L13.28,81.065L10.956,83.389L8.845,85.5C8.442,85.923 8.005,86.42 7.937,87C7.894,87.364 7.634,87.683 7.382,87.949C7.148,88.195 6.991,88.537 6.958,88.875C6.918,89.28 6.664,89.658 6.38,89.949C6,90.338 5.874,90.956 5.875,91.5L5.949,92.5C6.014,93.015 5.743,93.578 5.38,93.949C5.083,94.253 4.865,94.7 4.882,95.125L4.963,96L4.875,97.5V99.376C4.859,99.955 5.091,100.61 5.495,101.031C5.772,101.319 5.999,101.726 5.982,102.125L5.875,103.5C5.876,104.051 6.104,104.648 6.5,105.031L7.387,105.918C7.695,106.237 7.906,106.684 7.958,107.125C7.998,107.475 8.249,107.784 8.501,108.031L9.388,108.918C9.695,109.237 9.906,109.684 9.958,110.125C9.998,110.475 10.249,110.784 10.501,111.031L13.065,113.595L15.5,116.03C15.957,116.466 16.508,116.87 17.125,117.003C17.486,117.081 17.791,117.348 18.051,117.61L18.94,118.499C19.254,118.79 19.707,118.913 20.125,119.003C20.486,119.081 20.791,119.348 21.051,119.61L21.94,120.499C22.254,120.79 22.707,120.913 23.125,121.003C23.437,121.071 23.713,121.278 23.949,121.493C24.264,121.782 24.707,121.913 25.125,122.003C25.486,122.081 25.791,122.348 26.051,122.61L26.94,123.499C27.28,123.815 27.787,124.004 28.25,123.982L28.875,123.922C29.28,123.946 29.65,124.219 29.949,124.493C30.263,124.783 30.707,124.913 31.125,125.003C31.437,125.071 31.712,125.279 31.949,125.493C32.198,125.719 32.544,125.835 32.875,125.891C33.28,125.958 33.648,126.214 33.949,126.493C34.262,126.784 34.707,126.913 35.125,127.003C35.437,127.071 35.713,127.278 35.949,127.493C36.262,127.78 36.701,127.988 37.125,127.978L37.875,127.898C38.283,127.924 38.649,128.215 38.949,128.493C39.259,128.78 39.703,128.984 40.125,128.963L40.875,128.885C41.286,128.91 41.649,129.211 41.949,129.493C42.256,129.782 42.703,129.984 43.125,129.963L43.875,129.885C44.286,129.91 44.649,130.211 44.949,130.493C45.256,130.782 45.703,130.984 46.125,130.963L46.875,130.885C47.285,130.91 47.648,131.213 47.949,131.493C48.194,131.721 48.543,131.836 48.875,131.882C49.283,131.938 49.649,132.211 49.949,132.493C50.258,132.783 50.701,132.985 51.125,132.978L52.5,132.904C53.019,132.873 53.559,133.14 53.949,133.484C54.379,133.864 55.051,133.875 55.625,133.875C56.426,133.875 57.348,133.955 57.949,134.484C58.379,134.864 59.051,134.875 59.625,134.875C60.426,134.875 61.348,134.955 61.949,135.484C62.379,135.864 63.051,135.875 63.625,135.875L65.75,136.001C66.181,136.015 66.618,136.211 66.949,136.489C67.388,136.857 68.052,136.875 68.625,136.875L71.5,137C72.01,137.003 72.559,137.161 72.949,137.489C73.357,137.831 73.967,137.874 74.5,137.875L76.5,138C77.01,138.003 77.559,138.161 77.949,138.489C78.388,138.857 79.052,138.875 79.625,138.875L82.5,139C83.01,139.003 83.559,139.161 83.949,139.489C84.388,139.857 85.052,139.875 85.625,139.875L88.875,140H92.125C93.091,140 94.333,139.786 94.98,140.504C95.363,140.93 96.052,141 96.625,141H99.5H102.375H105.25C106.164,141 107.249,140.901 107.949,141.489C108.357,141.831 108.967,141.874 109.5,141.875L112.75,142H116H119.25H122.5H125.875H129H132.25H135.375C135.849,142 136.424,142.037 136.767,141.709C136.825,141.538 136.636,141.04 136.767,141.166C136.711,141.112 136.526,140.982 136.599,141.005C136.169,140.868 135.702,140.875 135.25,140.875H132.375H129.5H126.625H123.875H121H118.25H115.375H112.625C112.036,140.875 111.377,140.765 110.926,140.386C110.518,140.044 109.908,140.001 109.375,140L106.125,139.875H102.875H99.625H96.5C95.939,139.875 95.271,139.787 94.895,139.371C94.512,138.945 93.823,138.875 93.25,138.875H89.625C89.036,138.875 88.377,138.765 87.926,138.386C87.487,138.018 86.823,138 86.25,138L83.375,137.875C82.865,137.872 82.316,137.714 81.926,137.386C81.487,137.018 80.823,137 80.25,137L77.375,136.875C76.865,136.872 76.316,136.714 75.926,136.386C75.518,136.044 74.908,136.001 74.375,136L72.375,135.875C71.865,135.872 71.316,135.714 70.926,135.386C70.487,135.018 69.823,135 69.25,135L67.125,134.874C66.694,134.86 66.257,134.664 65.926,134.386C65.487,134.018 64.823,134 64.25,134C63.449,134 62.527,133.92 61.926,133.391C61.496,133.011 60.824,133 60.25,133C59.449,133 58.527,132.92 57.926,132.391C57.496,132.011 56.824,132 56.25,132C55.448,132 54.517,131.923 53.926,131.382C53.679,131.156 53.332,131.039 53,130.993C52.592,130.937 52.226,130.664 51.926,130.382C51.617,130.092 51.174,129.89 50.75,129.897L49.375,129.971C48.855,130.002 48.311,129.734 47.926,129.382C47.678,129.155 47.331,129.04 47,128.984C46.595,128.917 46.227,128.661 45.926,128.382C45.616,128.095 45.172,127.891 44.75,127.912L44,127.99C43.589,127.965 43.226,127.664 42.926,127.382C42.619,127.093 42.172,126.891 41.75,126.912L41,126.99C40.59,126.965 40.227,126.662 39.926,126.382C39.68,126.154 39.331,126.04 39,125.984C38.595,125.917 38.227,125.661 37.926,125.382C37.613,125.091 37.168,124.962 36.75,124.872C36.438,124.804 36.162,124.597 35.926,124.382C35.613,124.095 35.174,123.887 34.75,123.897L34,123.986C33.54,123.97 33.146,123.593 32.824,123.265L31.935,122.376C31.621,122.085 31.168,121.962 30.75,121.872C30.438,121.804 30.162,121.597 29.926,121.382C29.611,121.093 29.168,120.962 28.75,120.872C28.438,120.804 28.162,120.597 27.926,120.382C27.611,120.093 27.168,119.962 26.75,119.872C26.389,119.794 26.084,119.527 25.824,119.265L24.935,118.376C24.621,118.085 24.168,117.962 23.75,117.872C23.389,117.794 23.084,117.527 22.824,117.265L20.389,114.83C19.918,114.409 19.367,114.005 18.75,113.872C18.389,113.794 18.084,113.527 17.824,113.265L15.502,110.943C15.18,110.638 14.969,110.191 14.917,109.75C14.877,109.4 14.626,109.091 14.374,108.844L12.487,106.957C12.18,106.638 11.969,106.191 11.917,105.75C11.877,105.401 11.621,105.099 11.379,104.844C11.107,104.557 10.963,104.143 10.917,103.75C10.877,103.401 10.621,103.099 10.379,102.844C10.105,102.554 9.876,102.149 9.893,101.75L10,100.375C9.999,99.825 9.762,99.241 9.38,98.844C9.103,98.556 8.876,98.149 8.893,97.75L9,96.125L8.926,94.375C8.861,93.86 9.132,93.297 9.495,92.926C9.875,92.537 10.001,91.919 10,91.375L9.926,90.375C9.861,89.861 10.136,89.302 10.493,88.926C10.727,88.68 10.884,88.338 10.917,88C10.961,87.547 11.286,87.143 11.61,86.824L12.5,85.934C12.759,85.656 12.907,85.254 12.936,84.875C12.965,84.5 13.21,84.14 13.496,83.895L15.48,81.912L17.254,80.138L20.911,76.481C21.244,76.178 21.681,75.949 22.125,75.879C22.466,75.825 22.788,75.62 23.031,75.374L24.897,73.508C25.157,73.197 25.597,73.038 26,72.997C26.382,72.959 26.718,72.673 26.98,72.393C27.203,72.154 27.552,72.044 27.875,71.986C28.298,71.911 28.692,71.667 29.016,71.384C29.371,71.072 29.895,70.613 29.742,70.166C29.557,69.978 29.263,69.874 29,69.894C28.521,69.932 28.111,70.293 27.75,70.61Z"/></g><g id="color-738a8f"><path fill="#738A8F" fill-rule="evenodd" d="M111.108,140.709C111.48,141.066 112.11,141 112.625,141H115.75H118.75H121.875H124.875H128H131H134.125C135.08,141 136.217,140.874 136.949,141.489C137.388,141.857 138.052,141.875 138.625,141.875H141.626C142.076,142.009 142.631,141.854 142.911,141.496C143.157,141.181 143.602,141.025 144,140.998C144.272,140.979 144.569,140.898 144.767,140.709C144.887,140.353 144.376,139.88 144,139.88C143.649,139.88 143.285,140.099 143.074,140.379C142.949,140.544 142.803,140.707 142.618,140.8C142.318,140.785 142.05,140.574 141.824,140.377C141.417,140.023 140.789,140 140.25,140C139.083,140 137.916,139.925 136.75,139.877H133.25H129.75H126.375H122.875H119.375H115.875H112.5C112.375,139.875 112,139.876 112.125,139.875C112.042,139.876 111.792,139.883 111.875,139.878C111.792,139.883 111.547,139.919 111.626,139.894C111.509,139.931 111.198,140.1 111.276,140.005C111.123,140.192 111.031,140.481 111.108,140.709ZM88.108,138.166C88.001,138.482 88.247,138.872 88.501,139.089L89.925,140.514C90.25,140.789 90.701,140.988 91.125,140.978L92.125,140.878L93.625,141C94.12,140.999 94.642,140.755 94.98,140.393C95.364,139.981 96.061,140 96.625,140C97.785,140 99.224,139.798 100.051,140.612L100.939,141.5C101.217,141.75 101.627,141.863 102,141.876C103.458,141.926 104.916,142 106.375,142C106.5,142 106.875,141.999 106.75,142C106.833,141.999 107.083,141.992 107,141.997C107.083,141.992 107.328,141.956 107.249,141.981C107.366,141.944 107.677,141.775 107.599,141.87C107.752,141.683 107.844,141.394 107.767,141.166C107.395,140.809 106.765,140.875 106.25,140.875H104.625C103.991,140.875 103.276,140.708 102.824,140.263L101.936,139.375C101.658,139.125 101.248,139.012 100.875,138.999C99.417,138.949 97.959,138.875 96.5,138.875C95.951,138.875 95.307,138.978 94.933,139.379C94.669,139.664 94.262,139.893 93.875,139.867C93.472,139.839 93.112,139.546 92.824,139.263L91.935,138.375C91.623,138.087 91.174,137.887 90.75,137.897L89.75,137.993L88.75,137.885C88.517,137.899 88.277,138.004 88.108,138.166ZM167.895,137.482C167.779,137.607 167.326,137.838 167.493,137.798C167.411,137.817 167.166,137.86 167.249,137.856C167.125,137.862 166.75,137.875 166.875,137.874C166.75,137.875 166.375,137.875 166.5,137.875C166.417,137.875 166.167,137.875 166.25,137.875C165.458,137.875 164.667,137.875 163.875,137.875L162,138C161.582,138.019 161.167,138.222 160.844,138.489C160.043,139.151 158.789,138.875 157.75,138.875H154.75L152.375,139C151.839,139.001 151.257,139.147 150.844,139.489C150.234,139.993 149.292,139.875 148.5,139.875C148.026,139.875 147.451,139.838 147.108,140.166C147.05,140.337 147.239,140.835 147.108,140.709C147.164,140.763 147.349,140.893 147.276,140.87C147.706,141.007 148.173,141 148.625,141C149.917,141 151.208,140.876 152.5,140.875C153.036,140.874 153.618,140.728 154.031,140.386C154.484,140.012 155.163,140 155.75,140H160L161.875,139.875C162.293,139.856 162.708,139.653 163.031,139.386C163.484,139.012 164.163,139 164.75,139H166.375C166.947,139 167.589,138.811 167.98,138.393C168.364,137.981 169.061,138 169.625,138H171.375C171.5,138 171.875,137.999 171.75,138C171.833,137.999 172.083,137.992 172,137.997C172.083,137.992 172.328,137.956 172.249,137.981C172.366,137.944 172.677,137.775 172.599,137.87C172.752,137.683 172.844,137.394 172.767,137.166C172.395,136.809 171.765,136.875 171.25,136.875H169.5C168.928,136.875 168.286,137.064 167.895,137.482ZM81.993,137.875C81.939,138.268 81.674,138.626 81.382,138.895C81.172,139.09 81.016,139.438 81.108,139.709C81.421,140.009 81.942,140.003 82.375,140C82.5,139.999 82.874,139.981 82.75,139.993C82.833,139.985 83.082,139.951 83,139.968C83.083,139.951 83.328,139.884 83.249,139.916C83.402,139.854 83.765,139.547 83.694,139.696C83.798,139.479 83.849,139.238 83.882,139C83.936,138.607 84.201,138.249 84.493,137.98C84.703,137.785 84.859,137.437 84.767,137.166C84.454,136.866 83.933,136.872 83.5,136.875C83.375,136.876 83.001,136.894 83.125,136.882C83.042,136.89 82.793,136.924 82.875,136.907C82.792,136.924 82.547,136.991 82.626,136.959C82.473,137.021 82.11,137.328 82.181,137.179C82.077,137.396 82.026,137.637 81.993,137.875ZM76.066,136.268C76.066,136.689 76.502,136.991 76.668,137.377C76.63,137.635 76.432,137.845 76.273,138.051C76.152,138.207 76.066,138.409 76.066,138.607C76.221,138.862 76.577,138.999 76.875,138.991C77.401,138.976 77.881,138.389 77.992,137.875C78.061,137.552 78.262,137.253 78.498,137.02C78.711,136.811 78.862,136.449 78.767,136.166C78.425,135.838 77.849,135.875 77.375,135.875C76.92,135.875 76.302,135.879 76.066,136.268ZM70.883,136C70.814,136.323 70.613,136.622 70.377,136.855C70.164,137.064 70.013,137.426 70.108,137.709C70.45,138.037 71.026,138 71.5,138C71.955,138 72.573,137.996 72.809,137.607C72.809,137.15 72.273,136.828 72.207,136.377L72.602,135.824C72.723,135.668 72.809,135.466 72.809,135.268C72.654,135.013 72.298,134.876 72,134.884C71.474,134.899 70.994,135.486 70.883,136ZM65.895,134.496L64.503,135.77C64.238,135.983 64,136.388 64.108,136.709C64.333,136.925 64.688,137.006 65,136.993L66.125,136.872L66.694,136.694C66.819,136.489 66.849,136.237 66.882,136C66.935,135.609 67.199,135.253 67.484,134.98C67.689,134.782 67.834,134.435 67.742,134.166C67.556,133.977 67.264,133.877 67,133.884C66.579,133.896 66.169,134.177 65.895,134.496ZM61.743,133.628L60.546,134.825C60.255,135.001 60.026,135.395 60.133,135.709C60.318,135.897 60.612,135.999 60.875,135.981C61.359,135.947 61.791,135.593 62.132,135.247L63.329,134.05C63.62,133.874 63.849,133.48 63.742,133.166C63.557,132.978 63.263,132.876 63,132.894C62.516,132.928 62.084,133.282 61.743,133.628ZM51.935,130.495C52.024,130.759 52.279,130.941 52.499,131.111C52.767,131.318 53.01,131.663 52.987,132C52.963,132.348 52.643,132.621 52.384,132.855C52.231,132.993 52.101,133.176 52.045,133.375C52.097,133.716 52.531,134 52.875,133.991C53.291,133.979 53.689,133.691 53.965,133.379L55.372,132.09C55.63,131.876 55.874,131.483 55.767,131.166C55.541,130.95 55.187,130.873 54.875,130.878L54,130.953C53.566,130.927 53.188,130.581 52.895,130.259C52.76,130.11 52.577,129.984 52.38,129.941C52.154,130.012 51.96,130.26 51.935,130.495ZM46.013,128.166C45.941,128.438 46.155,128.756 46.379,128.926C46.543,129.05 46.705,129.197 46.793,129.382C46.747,129.696 46.483,129.942 46.268,130.176C46.064,130.399 45.89,130.698 45.89,131C45.89,131.667 46.958,131.987 47.625,132C48.12,132.009 48.635,132.253 48.98,132.608C49.159,132.793 49.46,132.928 49.709,132.862C49.836,132.738 49.962,132.549 49.925,132.376C49.868,132.115 49.585,131.959 49.377,131.793L48.837,131.254C48.567,131.019 48.234,130.818 48.082,130.495C48.119,130.256 48.318,130.063 48.493,129.895C48.662,129.734 48.809,129.502 48.809,129.268C48.634,128.979 48.212,128.895 47.875,128.875C47.535,128.854 47.187,128.648 46.984,128.375C46.837,128.176 46.629,127.934 46.382,127.941L46.013,128.166ZM9.166,93.108C8.809,93.48 8.875,94.11 8.875,94.625V97.375C8.875,97.849 8.838,98.424 9.166,98.767C9.337,98.825 9.835,98.636 9.709,98.767C9.763,98.711 9.893,98.526 9.87,98.599C10.007,98.169 10,97.702 10,97.25V94.5C10,93.97 9.907,92.975 9.38,93.036L9.166,93.108ZM16.38,76.971L15.895,77.375L12.398,80.873L8.981,84.289C8.934,84.502 9.063,84.787 9.268,84.904C9.541,84.904 9.795,84.701 9.98,84.5L13.477,81.002L16.894,77.586C16.941,77.373 16.812,77.088 16.607,76.971H16.38ZM29.612,69.75C29.288,70.121 28.974,70.59 28.5,70.721C28.239,70.65 28.036,70.441 27.824,70.273L27.379,70.051C27.14,70.116 26.948,70.313 26.785,70.501L26.249,71.037C25.843,71.472 25.338,71.904 24.75,71.996C24.411,72.05 24.105,72.261 23.844,72.484C23.58,72.711 23.221,72.837 22.875,72.875C22.5,72.916 21.987,73.352 22.108,73.709C22.335,73.926 22.689,73.967 23,74.007C23.34,74.051 23.644,74.275 23.906,74.497C24.075,74.641 24.276,74.765 24.493,74.809C24.723,74.738 24.907,74.55 25.067,74.37L25.611,73.825C26.036,73.408 26.537,72.972 27.125,72.879C27.464,72.825 27.77,72.614 28.031,72.391C28.297,72.163 28.656,72.05 29,71.986C29.393,71.913 29.751,71.66 30.031,71.374C30.471,70.925 31.041,70.377 30.992,69.75C30.971,69.489 30.83,69.202 30.606,69.066C30.204,69.066 29.876,69.447 29.612,69.75ZM50.895,61.482C50.538,61.864 49.898,61.874 49.375,61.875C48.842,61.876 48.259,62.092 47.895,62.482C47.538,62.864 46.898,62.874 46.375,62.875C45.842,62.876 45.259,63.092 44.895,63.482C44.538,63.864 43.898,63.874 43.375,63.875C42.842,63.876 42.259,64.092 41.895,64.482C41.566,64.835 40.983,64.87 40.5,64.875C39.911,64.881 39.297,65.113 38.844,65.489C38.387,65.868 37.718,65.933 37.125,65.955C36.662,65.972 36.192,66.191 35.844,66.498C35.544,66.764 35.146,66.934 34.75,66.996C34.316,67.065 33.86,67.562 33.894,68C33.931,68.468 34.531,68.886 35,68.872C35.376,68.861 35.73,68.622 36.016,68.377C36.323,68.113 36.725,67.942 37.125,67.879C37.464,67.825 37.77,67.614 38.031,67.391C38.298,67.161 38.657,67.049 39,66.969C39.385,66.88 39.727,66.638 40.031,66.386C40.298,66.164 40.654,66.038 41,66C41.344,65.962 41.693,65.769 41.911,65.5C42.26,65.068 42.945,65.001 43.5,65C44.033,64.999 44.616,64.783 44.98,64.393C45.337,64.011 45.977,64.001 46.5,64C47.033,63.999 47.616,63.783 47.98,63.393C48.337,63.011 48.977,63.001 49.5,63C50.033,62.999 50.616,62.783 50.98,62.393C51.229,62.127 51.636,62.027 52,61.998C52.272,61.976 52.569,61.899 52.765,61.709C52.883,61.321 52.28,60.859 51.875,60.879C51.492,60.898 51.157,61.202 50.895,61.482Z"/></g></svg>